# Blender v2.91.0 OBJ File: ''
# www.blender.org
mtllib table.mtl
o Stütze
v 1.226458 0.613229 -2.082742
v 1.226458 0.858521 -2.082742
v -1.226458 0.858521 -2.082742
v -1.226458 0.613229 -2.082742
v 1.226458 0.613229 -2.328034
v 1.226458 0.858521 -2.328033
v -1.226458 0.613229 -2.328034
v -1.226458 0.858521 -2.328033
vt 0.418112 0.528867
vt 0.418112 0.528867
vt 0.418112 0.528867
vt 0.418112 0.528867
vt 0.418112 0.528867
vt 0.418112 0.528867
vt 0.418112 0.528867
vt 0.418112 0.528867
vn 0.0000 -0.0000 1.0000
vn 1.0000 -0.0000 0.0000
vn 0.0000 0.0000 -1.0000
vn -1.0000 -0.0000 0.0000
vn 0.0000 1.0000 0.0000
vn 0.0000 -1.0000 0.0000
usemtl Mat.1
s 1
f 1/1/1 2/2/1 3/3/1 4/4/1
f 5/5/2 6/6/2 2/2/2 1/1/2
f 7/7/3 8/8/3 6/6/3 5/5/3
f 4/4/4 3/3/4 8/8/4 7/7/4
f 2/2/5 6/6/5 8/8/5 3/3/5
f 5/5/6 1/1/6 4/4/6 7/7/6
o Stütze_1
v 1.226458 0.613228 2.315897
v 1.226458 0.858520 2.315897
v -1.226458 0.858520 2.315897
v -1.226458 0.613228 2.315897
v 1.226458 0.613228 2.070605
v 1.226458 0.858520 2.070605
v -1.226458 0.613228 2.070605
v -1.226458 0.858520 2.070605
vt 0.418112 0.528867
vt 0.418112 0.528867
vt 0.418112 0.528867
vt 0.418112 0.528867
vt 0.418112 0.528867
vt 0.418112 0.528867
vt 0.418112 0.528867
vt 0.418112 0.528867
vn 0.0000 -0.0000 1.0000
vn 1.0000 -0.0000 0.0000
vn 0.0000 0.0000 -1.0000
vn -1.0000 0.0000 0.0000
vn 0.0000 1.0000 0.0000
vn 0.0000 -1.0000 0.0000
usemtl Mat.1
s 1
f 9/9/7 10/10/7 11/11/7 12/12/7
f 13/13/8 14/14/8 10/10/8 9/9/8
f 15/15/9 16/16/9 14/14/9 13/13/9
f 12/12/10 11/11/10 16/16/10 15/15/10
f 10/10/11 14/14/11 16/16/11 11/11/11
f 13/13/12 9/9/12 12/12/12 15/15/12
o Stütze_2
v 0.122646 0.613228 2.207624
v 0.122646 0.858520 2.207624
v -0.122646 0.858520 2.207624
v -0.122646 0.613228 2.207624
v 0.122646 0.613229 -2.207624
v 0.122646 0.858521 -2.207623
v -0.122646 0.613229 -2.207624
v -0.122646 0.858521 -2.207623
vt 0.418112 0.528867
vt 0.418112 0.528867
vt 0.418112 0.528867
vt 0.418112 0.528867
vt 0.418112 0.528867
vt 0.418112 0.528867
vt 0.418112 0.528867
vt 0.418112 0.528867
vn 0.0000 -0.0000 1.0000
vn 1.0000 0.0000 0.0000
vn 0.0000 0.0000 -1.0000
vn -1.0000 -0.0000 0.0000
vn 0.0000 1.0000 0.0000
vn 0.0000 -1.0000 -0.0000
usemtl Mat.1
s 1
f 17/17/13 18/18/13 19/19/13 20/20/13
f 21/21/14 22/22/14 18/18/14 17/17/14
f 23/23/15 24/24/15 22/22/15 21/21/15
f 20/20/16 19/19/16 24/24/16 23/23/16
usemtl Mat
f 18/18/17 22/22/17 24/24/17 19/19/17
f 21/21/18 17/17/18 20/20/18 23/23/18
o Platte
v 1.717041 1.165565 2.698207
v 1.717041 1.288211 2.698207
v -1.717041 1.288211 2.698207
v -1.717041 1.165565 2.698207
v -1.717041 1.165568 -2.698207
v -1.717041 1.288212 -2.698207
v 1.717041 1.288212 -2.698207
v 1.717041 1.165568 -2.698207
vt 0.418112 0.528867
vt 0.418112 0.528867
vt 0.418112 0.528867
vt 0.418112 0.528867
vt 0.418112 0.528867
vt 0.418112 0.528867
vt 0.418112 0.528867
vt 0.418112 0.528867
vn 0.0000 0.0000 1.0000
vn 0.0000 0.0000 -1.0000
vn 0.0000 1.0000 0.0000
vn 0.0000 -1.0000 -0.0000
vn 1.0000 0.0000 0.0000
vn -1.0000 0.0000 0.0000
usemtl Mat
s 1
f 25/25/19 26/26/19 27/27/19 28/28/19
f 29/29/20 30/30/20 31/31/20 32/32/20
f 26/26/21 31/31/21 30/30/21 27/27/21
f 32/32/22 25/25/22 28/28/22 29/29/22
usemtl Mat.1
f 32/32/23 31/31/23 26/26/23 25/25/23
f 28/28/24 27/27/24 30/30/24 29/29/24
o Bein
v -1.226458 -1.226458 2.330269
v -1.226458 1.226457 2.330270
v -1.471749 1.226457 2.330270
v -1.471749 -1.226458 2.330269
v -1.226458 -1.226458 2.084978
v -1.226458 1.226457 2.084978
v -1.471749 -1.226458 2.084978
v -1.471749 1.226457 2.084978
vt 0.418112 0.528867
vt 0.418112 0.528867
vt 0.418112 0.528867
vt 0.418112 0.528867
vt 0.418112 0.528867
vt 0.418112 0.528867
vt 0.418112 0.528867
vt 0.418112 0.528867
vn 0.0000 -0.0000 1.0000
vn 1.0000 0.0000 0.0000
vn 0.0000 0.0000 -1.0000
vn -1.0000 0.0000 0.0000
vn 0.0000 1.0000 0.0000
vn 0.0000 -1.0000 0.0000
usemtl Mat
s 1
f 33/33/25 34/34/25 35/35/25 36/36/25
f 37/37/26 38/38/26 34/34/26 33/33/26
f 39/39/27 40/40/27 38/38/27 37/37/27
f 36/36/28 35/35/28 40/40/28 39/39/28
f 34/34/29 38/38/29 40/40/29 35/35/29
f 37/37/30 33/33/30 36/36/30 39/39/30
o Bein_1
v 1.471749 -1.226458 2.330269
v 1.471749 1.226457 2.330270
v 1.226458 1.226457 2.330270
v 1.226458 -1.226458 2.330269
v 1.471749 -1.226458 2.084978
v 1.471749 1.226457 2.084978
v 1.226458 -1.226458 2.084978
v 1.226458 1.226457 2.084978
vt 0.418112 0.528867
vt 0.418112 0.528867
vt 0.418112 0.528867
vt 0.418112 0.528867
vt 0.418112 0.528867
vt 0.418112 0.528867
vt 0.418112 0.528867
vt 0.418112 0.528867
vn 0.0000 -0.0000 1.0000
vn 1.0000 -0.0000 0.0000
vn 0.0000 0.0000 -1.0000
vn -1.0000 -0.0000 0.0000
vn 0.0000 1.0000 0.0000
vn 0.0000 -1.0000 0.0000
usemtl Mat
s 1
f 41/41/31 42/42/31 43/43/31 44/44/31
f 45/45/32 46/46/32 42/42/32 41/41/32
f 47/47/33 48/48/33 46/46/33 45/45/33
f 44/44/34 43/43/34 48/48/34 47/47/34
f 42/42/35 46/46/35 48/48/35 43/43/35
f 45/45/36 41/41/36 44/44/36 47/47/36
o Bein_2
v -1.226458 -1.226457 -2.084978
v -1.226458 1.226458 -2.084978
v -1.471749 1.226458 -2.084978
v -1.471749 -1.226457 -2.084978
v -1.226458 -1.226457 -2.330270
v -1.226458 1.226458 -2.330269
v -1.471749 -1.226457 -2.330270
v -1.471749 1.226458 -2.330269
vt 0.418112 0.528867
vt 0.418112 0.528867
vt 0.418112 0.528867
vt 0.418112 0.528867
vt 0.418112 0.528867
vt 0.418112 0.528867
vt 0.418112 0.528867
vt 0.418112 0.528867
vn 0.0000 -0.0000 1.0000
vn 1.0000 0.0000 0.0000
vn 0.0000 0.0000 -1.0000
vn -1.0000 0.0000 0.0000
vn 0.0000 1.0000 0.0000
vn 0.0000 -1.0000 0.0000
usemtl Mat
s 1
f 49/49/37 50/50/37 51/51/37 52/52/37
f 53/53/38 54/54/38 50/50/38 49/49/38
f 55/55/39 56/56/39 54/54/39 53/53/39
f 52/52/40 51/51/40 56/56/40 55/55/40
f 50/50/41 54/54/41 56/56/41 51/51/41
f 53/53/42 49/49/42 52/52/42 55/55/42
o Bein_3
v 1.471749 -1.226457 -2.084978
v 1.471749 1.226458 -2.084978
v 1.226458 1.226458 -2.084978
v 1.226458 -1.226457 -2.084978
v 1.471749 -1.226457 -2.330270
v 1.471749 1.226458 -2.330269
v 1.226458 -1.226457 -2.330270
v 1.226458 1.226458 -2.330269
vt 0.418112 0.528867
vt 0.418112 0.528867
vt 0.418112 0.528867
vt 0.418112 0.528867
vt 0.418112 0.528867
vt 0.418112 0.528867
vt 0.418112 0.528867
vt 0.418112 0.528867
vn 0.0000 -0.0000 1.0000
vn 1.0000 -0.0000 0.0000
vn 0.0000 0.0000 -1.0000
vn -1.0000 -0.0000 0.0000
vn 0.0000 1.0000 0.0000
vn 0.0000 -1.0000 0.0000
usemtl Mat
s 1
f 57/57/43 58/58/43 59/59/43 60/60/43
f 61/61/44 62/62/44 58/58/44 57/57/44
f 63/63/45 64/64/45 62/62/45 61/61/45
f 60/60/46 59/59/46 64/64/46 63/63/46
f 58/58/47 62/62/47 64/64/47 59/59/47
f 61/61/48 57/57/48 60/60/48 63/63/48
